General
Unique ID                      : 329026851484403567155617007959868143863 (0xF788443E76CF017AE4932700B07378F7)
Complete name                  : ..El Castillo Ambulante[HD-1080p].mkv
Format                         : Matroska
Format version                 : Version 2
File size                      : 23.9 GiB
Duration                       : 1h 59mn
Overall bit rate mode          : Variable
Overall bit rate               : 28.8 Mbps
Encoded date                   : UTC 2011-11-22 05:52:46
Writing application            : mkvmerge v4.0.0 ('The Stars were mine') built on Jun  5 2010 13:23:32
Writing library                : libebml v1.0.0 + libmatroska v1.0.0

Video
ID                             : 1
Format                         : AVC
Format/Info                    : Advanced Video Codec
Format profile                 : High@L4.1
Format settings, CABAC         : Yes
Format settings, ReFrames      : 2 frames
Codec ID                       : V_MPEG4/ISO/AVC
Duration                       : 1h 59mn
Bit rate                       : 26.9 Mbps
Width                          : 1 920 pixels
Height                         : 1 080 pixels
Display aspect ratio           : 16:9
Frame rate                     : 23.976 fps
Color space                    : YUV
Chroma subsampling             : 4:2:0
Bit depth                      : 8 bits
Scan type                      : Progressive
Bits/(Pixel*Frame)             : 0.542
Stream size                    : 22.4 GiB (94%)
Language                       : Japanese
Default                        : Yes
Forced                         : No

Audio #1
ID                             : 2
Format                         : AC-3
Format/Info                    : Audio Coding 3
Mode extension                 : CM (complete main)
Codec ID                       : A_AC3
Duration                       : 1h 59mn
Bit rate mode                  : Constant
Bit rate                       : 448 Kbps
Channel(s)                     : 6 channels
Channel positions              : Front: L C R, Side: L R, LFE
Sampling rate                  : 48.0 KHz
Bit depth                      : 16 bits
Compression mode               : Lossy
Stream size                    : 382 MiB (2%)
Language                       : Spanish
Default                        : Yes
Forced                         : No

Audio #2
ID                             : 3
Format                         : DTS
Format/Info                    : Digital Theater Systems
Format profile                 : MA / Core
Codec ID                       : A_DTS
Duration                       : 1h 59mn
Bit rate mode                  : Variable
Bit rate                       : 806 Kbps / 755 Kbps
Channel(s)                     : 6 channels
Channel positions              : Front: L C R, Side: L R, LFE
Sampling rate                  : 48.0 KHz
Bit depth                      : 24 bits
Compression mode               : Lossless / Lossy
Language                       : Japanese
Default                        : No
Forced                         : No

Text
ID                             : 4
Format                         : UTF-8
Codec ID                       : S_TEXT/UTF8
Codec ID/Info                  : UTF-8 Plain Text
Language                       : Spanish
Default                        : Yes
Forced                         : No